<?xml version="1.0" encoding="UTF-8" standalone="no"?>
<!-- Created with Inkscape (http://www.inkscape.org/) -->

<svg
   xmlns:dc="http://purl.org/dc/elements/1.1/"
   xmlns:cc="http://creativecommons.org/ns#"
   xmlns:rdf="http://www.w3.org/1999/02/22-rdf-syntax-ns#"
   xmlns:svg="http://www.w3.org/2000/svg"
   xmlns="http://www.w3.org/2000/svg"
   xmlns:xlink="http://www.w3.org/1999/xlink"
   xmlns:sodipodi="http://sodipodi.sourceforge.net/DTD/sodipodi-0.dtd"
   xmlns:inkscape="http://www.inkscape.org/namespaces/inkscape"
   width="1024"
   height="768"
   id="svg2"
   version="1.1"
   inkscape:version="0.47 r22583"
   sodipodi:docname="podcats.svg">
  <defs
     id="defs4">
    <linearGradient
       id="linearGradient3734">
      <stop
         style="stop-color:#d996f3;stop-opacity:1;"
         offset="0"
         id="stop3736" />
      <stop
         style="stop-color:#9f46c1;stop-opacity:1;"
         offset="1"
         id="stop3738" />
    </linearGradient>
    <linearGradient
       id="linearGradient3726">
      <stop
         style="stop-color:#fddb5e;stop-opacity:1;"
         offset="0"
         id="stop3728" />
      <stop
         style="stop-color:#937401;stop-opacity:1;"
         offset="1"
         id="stop3730" />
    </linearGradient>
    <inkscape:perspective
       sodipodi:type="inkscape:persp3d"
       inkscape:vp_x="0 : 526.18109 : 1"
       inkscape:vp_y="0 : 1000 : 0"
       inkscape:vp_z="744.09448 : 526.18109 : 1"
       inkscape:persp3d-origin="372.04724 : 350.78739 : 1"
       id="perspective10" />
    <inkscape:perspective
       id="perspective3696"
       inkscape:persp3d-origin="0.5 : 0.33333333 : 1"
       inkscape:vp_z="1 : 0.5 : 1"
       inkscape:vp_y="0 : 1000 : 0"
       inkscape:vp_x="0 : 0.5 : 1"
       sodipodi:type="inkscape:persp3d" />
    <filter
       inkscape:collect="always"
       id="filter3714"
       x="-0.013609351"
       width="1.0272187"
       y="-0.10147706"
       height="1.2029541">
      <feGaussianBlur
         inkscape:collect="always"
         stdDeviation="4.60875"
         id="feGaussianBlur3716" />
    </filter>
    <linearGradient
       inkscape:collect="always"
       xlink:href="#linearGradient3726"
       id="linearGradient3732"
       x1="154.74521"
       y1="366.82401"
       x2="154.74521"
       y2="301.90036"
       gradientUnits="userSpaceOnUse" />
    <linearGradient
       inkscape:collect="always"
       xlink:href="#linearGradient3734"
       id="linearGradient3740"
       x1="645.3548"
       y1="301.80035"
       x2="646.26495"
       y2="334.36218"
       gradientUnits="userSpaceOnUse" />
    <inkscape:perspective
       id="perspective3750"
       inkscape:persp3d-origin="0.5 : 0.33333333 : 1"
       inkscape:vp_z="1 : 0.5 : 1"
       inkscape:vp_y="0 : 1000 : 0"
       inkscape:vp_x="0 : 0.5 : 1"
       sodipodi:type="inkscape:persp3d" />
    <linearGradient
       inkscape:collect="always"
       xlink:href="#linearGradient3726-2"
       id="linearGradient3732-3"
       x1="154.74521"
       y1="366.82401"
       x2="154.74521"
       y2="301.90036"
       gradientUnits="userSpaceOnUse" />
    <linearGradient
       id="linearGradient3726-2">
      <stop
         style="stop-color:#fddb5e;stop-opacity:1;"
         offset="0"
         id="stop3728-9" />
      <stop
         style="stop-color:#937401;stop-opacity:1;"
         offset="1"
         id="stop3730-2" />
    </linearGradient>
    <linearGradient
       inkscape:collect="always"
       xlink:href="#linearGradient3734-0"
       id="linearGradient3740-0"
       x1="645.3548"
       y1="301.80035"
       x2="646.26495"
       y2="334.36218"
       gradientUnits="userSpaceOnUse" />
    <linearGradient
       id="linearGradient3734-0">
      <stop
         style="stop-color:#d996f3;stop-opacity:1;"
         offset="0"
         id="stop3736-0" />
      <stop
         style="stop-color:#9f46c1;stop-opacity:1;"
         offset="1"
         id="stop3738-8" />
    </linearGradient>
    <linearGradient
       inkscape:collect="always"
       xlink:href="#linearGradient3726-2"
       id="linearGradient3762"
       x1="154.74521"
       y1="366.82401"
       x2="154.74521"
       y2="301.90036"
       gradientUnits="userSpaceOnUse" />
    <linearGradient
       id="linearGradient3764">
      <stop
         style="stop-color:#fddb5e;stop-opacity:1;"
         offset="0"
         id="stop3766" />
      <stop
         style="stop-color:#937401;stop-opacity:1;"
         offset="1"
         id="stop3768" />
    </linearGradient>
    <linearGradient
       inkscape:collect="always"
       xlink:href="#linearGradient3734-0"
       id="linearGradient3770"
       x1="645.3548"
       y1="301.80035"
       x2="646.26495"
       y2="334.36218"
       gradientUnits="userSpaceOnUse" />
    <linearGradient
       id="linearGradient3772">
      <stop
         style="stop-color:#d996f3;stop-opacity:1;"
         offset="0"
         id="stop3774" />
      <stop
         style="stop-color:#9f46c1;stop-opacity:1;"
         offset="1"
         id="stop3776" />
    </linearGradient>
    <linearGradient
       gradientTransform="translate(-1.5258792e-8,-2.4111937e-6)"
       y2="301.90036"
       x2="154.74521"
       y1="366.82401"
       x1="154.74521"
       gradientUnits="userSpaceOnUse"
       id="linearGradient3780"
       xlink:href="#linearGradient3726-2"
       inkscape:collect="always" />
    <linearGradient
       gradientTransform="translate(-1.5258792e-8,-2.4111937e-6)"
       y2="334.36218"
       x2="646.26495"
       y1="301.80035"
       x1="645.3548"
       gradientUnits="userSpaceOnUse"
       id="linearGradient3782"
       xlink:href="#linearGradient3734-0"
       inkscape:collect="always" />
    <filter
       inkscape:collect="always"
       id="filter3924">
      <feGaussianBlur
         inkscape:collect="always"
         stdDeviation="1.4097075"
         id="feGaussianBlur3926" />
    </filter>
    <linearGradient
       inkscape:collect="always"
       xlink:href="#linearGradient3726"
       id="linearGradient3965"
       gradientUnits="userSpaceOnUse"
       x1="154.74521"
       y1="366.82401"
       x2="154.74521"
       y2="301.90036" />
    <linearGradient
       inkscape:collect="always"
       xlink:href="#linearGradient3734"
       id="linearGradient3967"
       gradientUnits="userSpaceOnUse"
       x1="645.3548"
       y1="301.80035"
       x2="646.26495"
       y2="334.36218" />
    <inkscape:perspective
       id="perspective3989"
       inkscape:persp3d-origin="0.5 : 0.33333333 : 1"
       inkscape:vp_z="1 : 0.5 : 1"
       inkscape:vp_y="0 : 1000 : 0"
       inkscape:vp_x="0 : 0.5 : 1"
       sodipodi:type="inkscape:persp3d" />
    <inkscape:perspective
       id="perspective3989-2"
       inkscape:persp3d-origin="0.5 : 0.33333333 : 1"
       inkscape:vp_z="1 : 0.5 : 1"
       inkscape:vp_y="0 : 1000 : 0"
       inkscape:vp_x="0 : 0.5 : 1"
       sodipodi:type="inkscape:persp3d" />
    <inkscape:perspective
       id="perspective4024"
       inkscape:persp3d-origin="0.5 : 0.33333333 : 1"
       inkscape:vp_z="1 : 0.5 : 1"
       inkscape:vp_y="0 : 1000 : 0"
       inkscape:vp_x="0 : 0.5 : 1"
       sodipodi:type="inkscape:persp3d" />
    <filter
       inkscape:collect="always"
       id="filter4042"
       x="-0.012890356"
       width="1.0257807"
       y="-0.173733"
       height="1.347466">
      <feGaussianBlur
         inkscape:collect="always"
         stdDeviation="4.566016"
         id="feGaussianBlur4044" />
    </filter>
    <filter
       inkscape:collect="always"
       id="filter4070"
       x="-0.012890356"
       width="1.0257807"
       y="-0.173733"
       height="1.347466">
      <feGaussianBlur
         inkscape:collect="always"
         stdDeviation="4.566016"
         id="feGaussianBlur4072" />
    </filter>
  </defs>
  <sodipodi:namedview
     id="base"
     pagecolor="#3f1174"
     bordercolor="#666666"
     borderopacity="1.0"
     inkscape:pageopacity="1"
     inkscape:pageshadow="2"
     inkscape:zoom="0.98994949"
     inkscape:cx="533.14686"
     inkscape:cy="692.49298"
     inkscape:document-units="px"
     inkscape:current-layer="g4074"
     showgrid="false"
     showborder="true"
     borderlayer="true"
     inkscape:showpageshadow="false"
     showguides="false"
     inkscape:guide-bbox="true"
     inkscape:window-width="1440"
     inkscape:window-height="853"
     inkscape:window-x="1280"
     inkscape:window-y="24"
     inkscape:window-maximized="1">
    <sodipodi:guide
       orientation="0,1"
       position="117.1777,650"
       id="guide3601" />
    <sodipodi:guide
       orientation="1,0"
       position="0,725.28953"
       id="guide3603" />
    <sodipodi:guide
       orientation="1,0"
       position="800,615.1829"
       id="guide3605" />
    <sodipodi:guide
       orientation="0,1"
       position="132.32998,703"
       id="guide3607" />
    <sodipodi:guide
       orientation="1,0"
       position="87,597.00015"
       id="guide3609" />
    <sodipodi:guide
       orientation="1,0"
       position="750,851.5586"
       id="guide3611" />
    <sodipodi:guide
       orientation="0,1"
       position="-50.507627,763.5"
       id="guide3613" />
    <sodipodi:guide
       orientation="1,0"
       position="96,650"
       id="guide3969" />
    <sodipodi:guide
       orientation="0,1"
       position="54.043161,659"
       id="guide3971" />
    <sodipodi:guide
       orientation="0,1"
       position="44.951788,641"
       id="guide3973" />
    <sodipodi:guide
       orientation="1,0"
       position="937,558.61436"
       id="guide3975" />
    <sodipodi:guide
       orientation="1,0"
       position="928,563.16004"
       id="guide3977" />
  </sodipodi:namedview>
  <metadata
     id="metadata7">
    <rdf:RDF>
      <cc:Work
         rdf:about="">
        <dc:format>image/svg+xml</dc:format>
        <dc:type
           rdf:resource="http://purl.org/dc/dcmitype/StillImage" />
        <dc:title></dc:title>
      </cc:Work>
    </rdf:RDF>
  </metadata>
  <g
     inkscape:label="Layer 1"
     inkscape:groupmode="layer"
     id="layer1"
     transform="translate(0,-284.36218)">
    <rect
       style="fill:#000000;fill-opacity:1;stroke:none"
       id="rect3949"
       width="850"
       height="768"
       x="87"
       y="284.36218" />
    <g
       id="g3956"
       inkscape:export-filename="/home/altreus/code/podcats.in/docs/static/images/theme/banner-black.png"
       inkscape:export-xdpi="90"
       inkscape:export-ydpi="90"
       transform="matrix(1.0001533,0,0,0.99144309,112.43867,17.861107)">
      <g
         inkscape:export-ydpi="90"
         inkscape:export-xdpi="90"
         inkscape:export-filename="/home/altreus/code/podcats.in/docs/static/images/theme/banner.png"
         id="g3718">
        <path
           style="font-size:medium;font-style:normal;font-variant:normal;font-weight:normal;font-stretch:normal;text-indent:0;text-align:start;text-decoration:none;line-height:normal;letter-spacing:normal;word-spacing:normal;text-transform:none;direction:ltr;block-progression:tb;writing-mode:lr-tb;text-anchor:start;color:#000000;fill:#d996f3;fill-opacity:1;stroke:none;stroke-width:9;marker:none;visibility:visible;display:inline;overflow:visible;filter:url(#filter3714);enable-background:accumulate;font-family:Bitstream Charter;-inkscape-font-specification:Bitstream Charter"
           d="m 48.125,279.86218 -1.3125,1.3125 -50,50 -3.1875,3.1875 3.1875,3.1875 50,50 1.3125,1.3125 1.875,0 700,0 1.875,0 1.3125,-1.3125 50,-50 3.1875,-3.1875 -3.1875,-3.1875 -50,-50 -1.3125,-1.3125 -1.875,0 -700,0 -1.875,0 z m -2.625,9 709,0 45.5,45.5 -45.5,45.5 -709,0 -45.5,-45.5 45.5,-45.5 z"
           id="rect2816-6"
           sodipodi:nodetypes="cccccccccccccccccccccccccc" />
        <path
           style="font-size:medium;font-style:normal;font-variant:normal;font-weight:normal;font-stretch:normal;text-indent:0;text-align:start;text-decoration:none;line-height:normal;letter-spacing:normal;word-spacing:normal;text-transform:none;direction:ltr;block-progression:tb;writing-mode:lr-tb;text-anchor:start;color:#000000;fill:#d996f3;fill-opacity:1;stroke:none;stroke-width:9;marker:none;visibility:visible;display:inline;overflow:visible;enable-background:accumulate;font-family:Bitstream Charter;-inkscape-font-specification:Bitstream Charter"
           d="m 48.125,279.86218 -1.3125,1.3125 -50,50 -3.1875,3.1875 3.1875,3.1875 50,50 1.3125,1.3125 1.875,0 700,0 1.875,0 1.3125,-1.3125 50,-50 3.1875,-3.1875 -3.1875,-3.1875 -50,-50 -1.3125,-1.3125 -1.875,0 -700,0 -1.875,0 z m -2.625,9 709,0 45.5,45.5 -45.5,45.5 -709,0 -45.5,-45.5 45.5,-45.5 z"
           id="rect2816"
           sodipodi:nodetypes="cccccccccccccccccccccccccc" />
      </g>
      <g
         id="g3951">
        <path
           style="font-size:65.71218109px;font-style:normal;font-variant:normal;font-weight:normal;font-stretch:normal;fill:none;stroke:#ae5ad0;stroke-width:2;stroke-linejoin:round;stroke-miterlimit:4;stroke-opacity:1;stroke-dasharray:none;filter:url(#filter3924);font-family:TRON;-inkscape-font-specification:TRON"
           d="m 480.03125,300.3125 c -11.99093,21.30197 -23.32446,43.05555 -35.0625,64.53125 1.03083,6.02286 11.02593,1.57021 15.75,2.9375 5.6206,-1.09876 6.09596,-9.36146 9.55177,-13.36781 1.52735,-7.62693 9.99655,-3.58937 15.47948,-4.56969 7.33708,-0.45066 15.06892,0.90746 22.15625,-0.6875 0.23955,-5.79595 -5.37326,-10.82799 -7.44238,-16.31077 -6.44903,-10.81456 -11.49051,-22.8405 -18.80762,-32.90798 l -0.97439,0.22486 -0.65061,0.15014 z M 160.09375,301.5 c -0.23366,5.19657 -2.1448,12.82848 1.12199,16.856 10.97599,1.16467 22.69277,-1.65445 33.34676,1.48775 6.61103,2.74914 9.01522,10.16993 10,16.53125 5.22212,0.10313 12.80043,2.10858 16.82475,-1.18449 1.33233,-19.48044 -17.68003,-36.48367 -36.856,-34.37801 -8.08004,0.43979 -16.61498,-0.89164 -24.4375,0.6875 z m 98.84375,-0.65625 c -19.58672,-0.50214 -36.15907,18.97245 -32.875,38.3125 2.75435,20.43857 26.75504,35.57894 46.28125,27.5 17.24527,-6.09283 26.07387,-27.34432 19.25,-44.21875 -5.09232,-13.0272 -18.54785,-22.31604 -32.65625,-21.59375 z M 301.96875,301.5 c -0.21281,5.11659 -2.17792,12.69411 1.12199,16.63725 10.22538,0.71876 20.76894,-0.64827 30.94051,0.55025 9.76728,5.19307 14.20632,21.12792 4.53125,28.5 -10.79422,7.289 -24.80234,1.76361 -36.59375,4.53125 -0.22493,5.16241 -2.15874,12.77073 1.12199,16.76225 11.69783,-0.0864 23.79253,0.86667 35.37801,-0.4185 14.4865,-5.39839 25.28422,-21.29118 23.90625,-36.875 -1.3228,-14.11671 -12.5909,-26.21626 -25.84375,-30.15625 -11.25939,-0.27233 -22.83557,-0.59943 -33.97156,0.1979 L 301.96875,301.5 z M 401.25,300.84375 c -9.98395,1.85015 -18.67153,9.62657 -23.625,18.3125 -7.11307,12.65818 -3.56852,28.70153 6.0625,39 6.21797,7.97797 16.22999,11.87987 26.25,10.46875 8.11084,-0.43724 16.60637,0.88817 24.46875,-0.6875 0.22493,-5.16241 2.15874,-12.77073 -1.12199,-16.76225 -11.90916,-1.5563 -25.83192,3.19086 -36.22176,-4.5815 -8.82468,-7.70272 -4.11249,-22.97547 5.375,-27.9375 10.49564,-1.43265 21.64011,0.87099 31.96875,-1.0625 0.21281,-5.11659 2.17792,-12.69411 -1.12199,-16.63725 -10.62202,-0.31431 -21.36901,-0.091 -32.03426,-0.11275 z m 210.375,0 c -17.96297,-0.29413 -34.88597,16.8511 -32.7396,34.87781 4.60337,2.09544 11.6544,1.27038 16.8021,0.40344 0.24809,-8.74946 6.7334,-18.21795 16.375,-17.625 11.50903,-0.47416 23.42992,0.93879 34.6875,-0.6875 0.23366,-5.19657 2.1448,-12.82848 -1.12199,-16.856 -11.27683,-0.31378 -22.68255,-0.0917 -34.00301,-0.11275 z m -97.09375,0.78125 c -0.20656,5.09356 -2.18777,12.65596 1.12199,16.57475 4.29208,1.8523 15.08714,-3.29028 14.59288,3.144 0.26459,15.386 -0.60524,31.01883 0.35803,46.25281 5.23189,2.53387 12.55967,0.37412 18.58335,1.09094 4.96216,-0.39963 14.93841,2.44232 12.6875,-6 0,-14.78125 0,-29.5625 0,-44.34375 4.75924,-1.31905 14.19778,3.03346 15.625,-3 -1.2275,-4.49408 3.23821,-14.69554 -4,-14.40625 -19.42825,0.28102 -39.10137,-0.55994 -58.37781,0.41665 l -0.59094,0.27085 z M 259.4375,318.5 c 13.15794,-1.43773 21.71424,16.07679 13.53125,26.09375 -5.97169,9.19642 -21.4743,8.56121 -26.375,-1.65625 -6.31782,-9.91337 1.11588,-24.14944 12.84375,-24.4375 z m -106.1875,15 c -1.17212,10.87747 -0.16275,22.15639 -0.5,33.1875 3.60617,4.40889 11.64602,0.85651 17,2 4.55667,-1.25124 14.89412,3.26974 14.65625,-4 -0.44934,-10.41028 0.90473,-21.21416 -0.6875,-31.375 -9.74315,-0.8899 -20.13306,-0.72582 -29.87781,-0.0833 L 153.25,333.5 z m 477.09375,0 c -0.35225,8.03734 -5.53756,16.96324 -14.46875,17.5625 -12.14044,0.69232 -24.70083,-0.90728 -36.59375,0.78125 -0.23078,5.1852 -2.14941,12.8092 1.12199,16.82475 13.52733,-0.20362 27.35072,1.12261 40.81551,-0.63725 15.32159,-3.01845 27.4724,-18.61118 25.6146,-34.12781 -4.20083,-2.05696 -11.69984,-1.30658 -16.4896,-0.40344 z"
           id="text3722-7"
           inkscape:export-filename="/home/altreus/code/podcats.in/docs/static/images/theme/banner.png"
           inkscape:export-xdpi="90"
           inkscape:export-ydpi="90" />
        <text
           xml:space="preserve"
           style="font-size:65.71218109px;font-style:normal;font-variant:normal;font-weight:normal;font-stretch:normal;fill:url(#linearGradient3965);fill-opacity:1;stroke:url(#linearGradient3967);stroke-width:2;stroke-linejoin:round;stroke-miterlimit:4;stroke-dasharray:none;font-family:TRON;-inkscape-font-specification:TRON"
           x="151.39389"
           y="367.67825"
           id="text3722"
           inkscape:export-xdpi="90"
           inkscape:export-ydpi="90"
           inkscape:export-filename="/home/altreus/code/podcats.in/docs/static/images/theme/banner.png"><tspan
             sodipodi:role="line"
             id="tspan3724"
             x="151.39389"
             y="367.67825"
             style="fill:url(#linearGradient3965);fill-opacity:1;stroke:url(#linearGradient3967);stroke-width:2;stroke-linejoin:round;stroke-miterlimit:4;stroke-dasharray:none">PODCATS</tspan></text>
      </g>
    </g>
    <g
       id="g4074">
      <path
         sodipodi:nodetypes="cccccc"
         transform="translate(0,284.36218)"
         id="path3979"
         d="M 86.873119,63.923676 96,65 l 62,62 708,0 62,-62 9,0"
         style="fill:none;stroke:#d996f3;stroke-width:4;stroke-linecap:butt;stroke-linejoin:miter;stroke-opacity:1;stroke-miterlimit:4;stroke-dasharray:none" />
      <path
         sodipodi:nodetypes="cccccc"
         id="path3979-7"
         d="M 86.873119,348.28586 96,349.36218 l 62,62 708,0 62,-62 9,0"
         style="fill:none;stroke:#d996f3;stroke-width:4;stroke-linecap:square;stroke-linejoin:miter;stroke-miterlimit:4;stroke-opacity:1;stroke-dasharray:none;filter:url(#filter4070)" />
    </g>
    <g
       id="g4078">
      <path
         sodipodi:nodetypes="cccccc"
         id="path3979-0"
         d="M 86.873119,362.28586 96,363.36218 l 62,62 708,0 62,-62 9,0"
         style="fill:none;stroke:#d996f3;stroke-width:4;stroke-linecap:butt;stroke-linejoin:miter;stroke-miterlimit:4;stroke-opacity:1;stroke-dasharray:none" />
      <path
         sodipodi:nodetypes="cccccc"
         id="path3979-0-9"
         d="M 86.873119,362.28586 96,363.36218 l 62,62 708,0 62,-62 9,0"
         style="fill:none;stroke:#d996f3;stroke-width:4;stroke-linecap:square;stroke-linejoin:miter;stroke-miterlimit:4;stroke-opacity:1;stroke-dasharray:none;filter:url(#filter4042)" />
    </g>
  </g>
</svg>
